<mxfile host="www.draw.io" modified="2020-01-20T16:39:41.517Z" agent="Mozilla/5.0 (Windows NT 6.1; Win64; x64; rv:68.0) Gecko/20100101 Firefox/68.0" etag="0bPjB-bOCdo3tD5JnJp-" version="12.5.5" type="github">
  <diagram id="C5RBs43oDa-KdzZeNtuy" name="Page-1">
    <mxGraphModel dx="599" dy="408" grid="1" gridSize="10" guides="1" tooltips="1" connect="1" arrows="1" fold="1" page="1" pageScale="1" pageWidth="827" pageHeight="1169" math="0" shadow="0">
      <root>
        <mxCell id="WIyWlLk6GJQsqaUBKTNV-0"/>
        <mxCell id="WIyWlLk6GJQsqaUBKTNV-1" parent="WIyWlLk6GJQsqaUBKTNV-0"/>
        <mxCell id="Py7D3DHDYF_3Lp-QWC3_-5" value="" style="edgeStyle=orthogonalEdgeStyle;rounded=0;orthogonalLoop=1;jettySize=auto;html=1;" edge="1" parent="WIyWlLk6GJQsqaUBKTNV-1" source="Py7D3DHDYF_3Lp-QWC3_-0" target="Py7D3DHDYF_3Lp-QWC3_-3">
          <mxGeometry relative="1" as="geometry"/>
        </mxCell>
        <mxCell id="Py7D3DHDYF_3Lp-QWC3_-20" value="" style="edgeStyle=orthogonalEdgeStyle;rounded=0;orthogonalLoop=1;jettySize=auto;html=1;" edge="1" parent="WIyWlLk6GJQsqaUBKTNV-1" source="Py7D3DHDYF_3Lp-QWC3_-0" target="Py7D3DHDYF_3Lp-QWC3_-15">
          <mxGeometry relative="1" as="geometry"/>
        </mxCell>
        <mxCell id="Py7D3DHDYF_3Lp-QWC3_-0" value="&lt;div&gt;a &amp;gt; 4&lt;/div&gt;" style="strokeWidth=2;html=1;shape=mxgraph.flowchart.decision;whiteSpace=wrap;" vertex="1" parent="WIyWlLk6GJQsqaUBKTNV-1">
          <mxGeometry x="305" y="100" width="100" height="100" as="geometry"/>
        </mxCell>
        <mxCell id="Py7D3DHDYF_3Lp-QWC3_-2" style="edgeStyle=orthogonalEdgeStyle;rounded=0;orthogonalLoop=1;jettySize=auto;html=1;entryX=0.5;entryY=0;entryDx=0;entryDy=0;entryPerimeter=0;" edge="1" parent="WIyWlLk6GJQsqaUBKTNV-1" source="Py7D3DHDYF_3Lp-QWC3_-1" target="Py7D3DHDYF_3Lp-QWC3_-0">
          <mxGeometry relative="1" as="geometry">
            <mxPoint x="355" y="140" as="targetPoint"/>
          </mxGeometry>
        </mxCell>
        <mxCell id="Py7D3DHDYF_3Lp-QWC3_-1" value="Dame un número entero (a): " style="rounded=1;whiteSpace=wrap;html=1;absoluteArcSize=1;arcSize=14;strokeWidth=2;" vertex="1" parent="WIyWlLk6GJQsqaUBKTNV-1">
          <mxGeometry x="250" y="10" width="210" height="60" as="geometry"/>
        </mxCell>
        <mxCell id="Py7D3DHDYF_3Lp-QWC3_-3" value="El número es mayor de 4" style="rounded=1;whiteSpace=wrap;html=1;absoluteArcSize=1;arcSize=14;strokeWidth=2;" vertex="1" parent="WIyWlLk6GJQsqaUBKTNV-1">
          <mxGeometry x="460" y="120" width="210" height="60" as="geometry"/>
        </mxCell>
        <mxCell id="Py7D3DHDYF_3Lp-QWC3_-6" value="&amp;nbsp; SI " style="text;html=1;" vertex="1" parent="WIyWlLk6GJQsqaUBKTNV-1">
          <mxGeometry x="416" y="120" width="30" height="30" as="geometry"/>
        </mxCell>
        <mxCell id="Py7D3DHDYF_3Lp-QWC3_-7" value="El número es menor que 4" style="rounded=1;whiteSpace=wrap;html=1;absoluteArcSize=1;arcSize=14;strokeWidth=2;" vertex="1" parent="WIyWlLk6GJQsqaUBKTNV-1">
          <mxGeometry x="460" y="260" width="210" height="60" as="geometry"/>
        </mxCell>
        <mxCell id="Py7D3DHDYF_3Lp-QWC3_-8" value="NO" style="text;html=1;" vertex="1" parent="WIyWlLk6GJQsqaUBKTNV-1">
          <mxGeometry x="320" y="200" width="30" height="30" as="geometry"/>
        </mxCell>
        <mxCell id="Py7D3DHDYF_3Lp-QWC3_-13" value="&amp;nbsp;then " style="text;html=1;" vertex="1" parent="WIyWlLk6GJQsqaUBKTNV-1">
          <mxGeometry x="410" y="290" width="36" height="30" as="geometry"/>
        </mxCell>
        <mxCell id="Py7D3DHDYF_3Lp-QWC3_-14" value="elif " style="text;html=1;" vertex="1" parent="WIyWlLk6GJQsqaUBKTNV-1">
          <mxGeometry x="370" y="200" width="30" height="30" as="geometry"/>
        </mxCell>
        <mxCell id="Py7D3DHDYF_3Lp-QWC3_-21" value="" style="edgeStyle=orthogonalEdgeStyle;rounded=0;orthogonalLoop=1;jettySize=auto;html=1;" edge="1" parent="WIyWlLk6GJQsqaUBKTNV-1" source="Py7D3DHDYF_3Lp-QWC3_-15" target="Py7D3DHDYF_3Lp-QWC3_-7">
          <mxGeometry relative="1" as="geometry"/>
        </mxCell>
        <mxCell id="Py7D3DHDYF_3Lp-QWC3_-15" value="&lt;div&gt;a &amp;lt; 4&lt;/div&gt;" style="strokeWidth=2;html=1;shape=mxgraph.flowchart.decision;whiteSpace=wrap;" vertex="1" parent="WIyWlLk6GJQsqaUBKTNV-1">
          <mxGeometry x="305" y="240" width="100" height="100" as="geometry"/>
        </mxCell>
        <mxCell id="Py7D3DHDYF_3Lp-QWC3_-16" style="edgeStyle=orthogonalEdgeStyle;rounded=0;orthogonalLoop=1;jettySize=auto;html=1;entryX=0;entryY=0.5;entryDx=0;entryDy=0;" edge="1" source="Py7D3DHDYF_3Lp-QWC3_-15" target="Py7D3DHDYF_3Lp-QWC3_-17" parent="WIyWlLk6GJQsqaUBKTNV-1">
          <mxGeometry relative="1" as="geometry">
            <Array as="points">
              <mxPoint x="355" y="380"/>
            </Array>
          </mxGeometry>
        </mxCell>
        <mxCell id="Py7D3DHDYF_3Lp-QWC3_-17" value="El número es ....&amp;nbsp; 4" style="rounded=1;whiteSpace=wrap;html=1;absoluteArcSize=1;arcSize=14;strokeWidth=2;" vertex="1" parent="WIyWlLk6GJQsqaUBKTNV-1">
          <mxGeometry x="460" y="350" width="210" height="60" as="geometry"/>
        </mxCell>
        <mxCell id="Py7D3DHDYF_3Lp-QWC3_-18" value="NO" style="text;html=1;" vertex="1" parent="WIyWlLk6GJQsqaUBKTNV-1">
          <mxGeometry x="320" y="350" width="30" height="30" as="geometry"/>
        </mxCell>
        <mxCell id="Py7D3DHDYF_3Lp-QWC3_-19" value="else " style="text;html=1;" vertex="1" parent="WIyWlLk6GJQsqaUBKTNV-1">
          <mxGeometry x="360" y="350" width="30" height="30" as="geometry"/>
        </mxCell>
        <mxCell id="Py7D3DHDYF_3Lp-QWC3_-23" value="&amp;nbsp; SI " style="text;html=1;" vertex="1" parent="WIyWlLk6GJQsqaUBKTNV-1">
          <mxGeometry x="418" y="260" width="30" height="30" as="geometry"/>
        </mxCell>
      </root>
    </mxGraphModel>
  </diagram>
</mxfile>
